<mxfile host="app.diagrams.net" agent="Mozilla/5.0 (X11; Linux x86_64) AppleWebKit/537.36 (KHTML, like Gecko) Chrome/136.0.0.0 Safari/537.36" version="27.0.5">
  <diagram name="Page-1" id="ctCjrGwyJ_ED1_jvhDr6">
    <mxGraphModel dx="1382" dy="703" grid="1" gridSize="10" guides="1" tooltips="1" connect="1" arrows="1" fold="1" page="1" pageScale="1" pageWidth="800" pageHeight="600" math="0" shadow="0">
      <root>
        <mxCell id="0" />
        <mxCell id="1" parent="0" />
        <mxCell id="JZXFlvNscchI0bjUY62b-1" value="Room" style="rounded=0;whiteSpace=wrap;html=1;movable=1;resizable=1;rotatable=1;deletable=1;editable=1;locked=0;connectable=1;" parent="1" vertex="1">
          <mxGeometry x="10" y="10" width="780" height="580" as="geometry" />
        </mxCell>
        <mxCell id="JZXFlvNscchI0bjUY62b-3" value="Conveyor" style="shape=process;whiteSpace=wrap;html=1;backgroundOutline=1;" parent="1" vertex="1">
          <mxGeometry x="180" y="10" width="120" height="310" as="geometry" />
        </mxCell>
        <mxCell id="JZXFlvNscchI0bjUY62b-4" value="Conveyor" style="shape=process;whiteSpace=wrap;html=1;backgroundOutline=1;" parent="1" vertex="1">
          <mxGeometry x="480" y="10" width="120" height="310" as="geometry" />
        </mxCell>
        <mxCell id="PkzCbmemoIAj5ChBAMET-21" style="edgeStyle=orthogonalEdgeStyle;rounded=0;orthogonalLoop=1;jettySize=auto;html=1;exitX=0;exitY=0;exitDx=0;exitDy=0;entryX=1;entryY=0.5;entryDx=0;entryDy=0;" edge="1" parent="1" source="PkzCbmemoIAj5ChBAMET-1" target="PkzCbmemoIAj5ChBAMET-3">
          <mxGeometry relative="1" as="geometry" />
        </mxCell>
        <mxCell id="PkzCbmemoIAj5ChBAMET-29" value="1" style="edgeLabel;html=1;align=center;verticalAlign=middle;resizable=0;points=[];" vertex="1" connectable="0" parent="PkzCbmemoIAj5ChBAMET-21">
          <mxGeometry x="-0.0792" relative="1" as="geometry">
            <mxPoint as="offset" />
          </mxGeometry>
        </mxCell>
        <mxCell id="PkzCbmemoIAj5ChBAMET-1" value="Robot" style="ellipse;whiteSpace=wrap;html=1;aspect=fixed;fillColor=#d80073;fontColor=#ffffff;strokeColor=#A50040;" vertex="1" parent="1">
          <mxGeometry x="380" y="230" width="40" height="40" as="geometry" />
        </mxCell>
        <mxCell id="PkzCbmemoIAj5ChBAMET-26" style="edgeStyle=orthogonalEdgeStyle;rounded=0;orthogonalLoop=1;jettySize=auto;html=1;exitX=0.5;exitY=1;exitDx=0;exitDy=0;entryX=0.5;entryY=0;entryDx=0;entryDy=0;" edge="1" parent="1" source="PkzCbmemoIAj5ChBAMET-2" target="PkzCbmemoIAj5ChBAMET-5">
          <mxGeometry relative="1" as="geometry">
            <Array as="points">
              <mxPoint x="460" y="350" />
              <mxPoint x="680" y="350" />
            </Array>
          </mxGeometry>
        </mxCell>
        <mxCell id="PkzCbmemoIAj5ChBAMET-33" value="5" style="edgeLabel;html=1;align=center;verticalAlign=middle;resizable=0;points=[];" vertex="1" connectable="0" parent="PkzCbmemoIAj5ChBAMET-26">
          <mxGeometry x="0.068" y="-4" relative="1" as="geometry">
            <mxPoint as="offset" />
          </mxGeometry>
        </mxCell>
        <mxCell id="PkzCbmemoIAj5ChBAMET-2" value="" style="ellipse;whiteSpace=wrap;html=1;aspect=fixed;fillColor=#ffe6cc;strokeColor=#d79b00;" vertex="1" parent="1">
          <mxGeometry x="440" y="145" width="40" height="40" as="geometry" />
        </mxCell>
        <mxCell id="PkzCbmemoIAj5ChBAMET-22" style="edgeStyle=orthogonalEdgeStyle;rounded=0;orthogonalLoop=1;jettySize=auto;html=1;exitX=0.5;exitY=1;exitDx=0;exitDy=0;entryX=1;entryY=1;entryDx=0;entryDy=0;" edge="1" parent="1" source="PkzCbmemoIAj5ChBAMET-3" target="PkzCbmemoIAj5ChBAMET-16">
          <mxGeometry relative="1" as="geometry">
            <Array as="points">
              <mxPoint x="320" y="334" />
            </Array>
          </mxGeometry>
        </mxCell>
        <mxCell id="PkzCbmemoIAj5ChBAMET-30" value="2" style="edgeLabel;html=1;align=center;verticalAlign=middle;resizable=0;points=[];" vertex="1" connectable="0" parent="PkzCbmemoIAj5ChBAMET-22">
          <mxGeometry x="-0.6274" y="5" relative="1" as="geometry">
            <mxPoint as="offset" />
          </mxGeometry>
        </mxCell>
        <mxCell id="PkzCbmemoIAj5ChBAMET-36" style="edgeStyle=orthogonalEdgeStyle;rounded=0;orthogonalLoop=1;jettySize=auto;html=1;exitX=1;exitY=0;exitDx=0;exitDy=0;entryX=0;entryY=0.5;entryDx=0;entryDy=0;" edge="1" parent="1" source="PkzCbmemoIAj5ChBAMET-3" target="PkzCbmemoIAj5ChBAMET-18">
          <mxGeometry relative="1" as="geometry">
            <Array as="points">
              <mxPoint x="334" y="130" />
              <mxPoint x="460" y="130" />
              <mxPoint x="460" y="80" />
            </Array>
          </mxGeometry>
        </mxCell>
        <mxCell id="PkzCbmemoIAj5ChBAMET-37" value="8" style="edgeLabel;html=1;align=center;verticalAlign=middle;resizable=0;points=[];" vertex="1" connectable="0" parent="PkzCbmemoIAj5ChBAMET-36">
          <mxGeometry x="-0.5223" y="-4" relative="1" as="geometry">
            <mxPoint as="offset" />
          </mxGeometry>
        </mxCell>
        <mxCell id="PkzCbmemoIAj5ChBAMET-3" value="" style="ellipse;whiteSpace=wrap;html=1;aspect=fixed;fillColor=#ffe6cc;strokeColor=#d79b00;" vertex="1" parent="1">
          <mxGeometry x="300" y="145" width="40" height="40" as="geometry" />
        </mxCell>
        <mxCell id="PkzCbmemoIAj5ChBAMET-4" value="Production&lt;div&gt;Machine&lt;/div&gt;" style="verticalLabelPosition=bottom;verticalAlign=top;html=1;shape=mxgraph.basic.polygon;polyCoords=[[0.25,0],[0.75,0],[1,0.25],[1,0.75],[0.75,1],[0.25,1],[0,0.75],[0,0.25]];polyline=0;spacing=-40;" vertex="1" parent="1">
          <mxGeometry x="700" y="500" width="80" height="80" as="geometry" />
        </mxCell>
        <mxCell id="PkzCbmemoIAj5ChBAMET-27" style="edgeStyle=orthogonalEdgeStyle;rounded=0;orthogonalLoop=1;jettySize=auto;html=1;exitX=0;exitY=0.5;exitDx=0;exitDy=0;" edge="1" parent="1" source="PkzCbmemoIAj5ChBAMET-5" target="PkzCbmemoIAj5ChBAMET-14">
          <mxGeometry relative="1" as="geometry" />
        </mxCell>
        <mxCell id="PkzCbmemoIAj5ChBAMET-34" value="6" style="edgeLabel;html=1;align=center;verticalAlign=middle;resizable=0;points=[];" vertex="1" connectable="0" parent="PkzCbmemoIAj5ChBAMET-27">
          <mxGeometry x="0.25" y="-3" relative="1" as="geometry">
            <mxPoint as="offset" />
          </mxGeometry>
        </mxCell>
        <mxCell id="PkzCbmemoIAj5ChBAMET-5" value="" style="ellipse;whiteSpace=wrap;html=1;aspect=fixed;fillColor=#ffe6cc;strokeColor=#d79b00;" vertex="1" parent="1">
          <mxGeometry x="660" y="460" width="40" height="40" as="geometry" />
        </mxCell>
        <mxCell id="PkzCbmemoIAj5ChBAMET-6" value="Production&lt;div&gt;Machine&lt;/div&gt;" style="verticalLabelPosition=bottom;verticalAlign=top;html=1;shape=mxgraph.basic.polygon;polyCoords=[[0.25,0],[0.75,0],[1,0.25],[1,0.75],[0.75,1],[0.25,1],[0,0.75],[0,0.25]];polyline=0;spacing=-40;" vertex="1" parent="1">
          <mxGeometry x="20" y="500" width="80" height="80" as="geometry" />
        </mxCell>
        <mxCell id="PkzCbmemoIAj5ChBAMET-25" style="edgeStyle=orthogonalEdgeStyle;rounded=0;orthogonalLoop=1;jettySize=auto;html=1;exitX=1;exitY=0.5;exitDx=0;exitDy=0;entryX=0;entryY=1;entryDx=0;entryDy=0;" edge="1" parent="1" source="PkzCbmemoIAj5ChBAMET-7" target="PkzCbmemoIAj5ChBAMET-2">
          <mxGeometry relative="1" as="geometry">
            <Array as="points">
              <mxPoint x="140" y="470" />
              <mxPoint x="430" y="470" />
              <mxPoint x="430" y="179" />
            </Array>
          </mxGeometry>
        </mxCell>
        <mxCell id="PkzCbmemoIAj5ChBAMET-32" value="4" style="edgeLabel;html=1;align=center;verticalAlign=middle;resizable=0;points=[];" vertex="1" connectable="0" parent="PkzCbmemoIAj5ChBAMET-25">
          <mxGeometry x="-0.644" y="4" relative="1" as="geometry">
            <mxPoint as="offset" />
          </mxGeometry>
        </mxCell>
        <mxCell id="PkzCbmemoIAj5ChBAMET-7" value="" style="ellipse;whiteSpace=wrap;html=1;aspect=fixed;fillColor=#ffe6cc;strokeColor=#d79b00;" vertex="1" parent="1">
          <mxGeometry x="100" y="460" width="40" height="40" as="geometry" />
        </mxCell>
        <mxCell id="PkzCbmemoIAj5ChBAMET-11" value="Production&lt;div&gt;Machine&lt;/div&gt;" style="verticalLabelPosition=bottom;verticalAlign=top;html=1;shape=mxgraph.basic.polygon;polyCoords=[[0.25,0],[0.75,0],[1,0.25],[1,0.75],[0.75,1],[0.25,1],[0,0.75],[0,0.25]];polyline=0;spacing=-40;" vertex="1" parent="1">
          <mxGeometry x="305" y="380" width="80" height="80" as="geometry" />
        </mxCell>
        <mxCell id="PkzCbmemoIAj5ChBAMET-12" value="" style="ellipse;whiteSpace=wrap;html=1;aspect=fixed;fillColor=#ffe6cc;strokeColor=#d79b00;" vertex="1" parent="1">
          <mxGeometry x="325" y="340" width="40" height="40" as="geometry" />
        </mxCell>
        <mxCell id="PkzCbmemoIAj5ChBAMET-13" value="Production&lt;div&gt;Machine&lt;/div&gt;" style="verticalLabelPosition=bottom;verticalAlign=top;html=1;shape=mxgraph.basic.polygon;polyCoords=[[0.25,0],[0.75,0],[1,0.25],[1,0.75],[0.75,1],[0.25,1],[0,0.75],[0,0.25]];polyline=0;spacing=-40;" vertex="1" parent="1">
          <mxGeometry x="440" y="380" width="80" height="80" as="geometry" />
        </mxCell>
        <mxCell id="PkzCbmemoIAj5ChBAMET-28" style="edgeStyle=orthogonalEdgeStyle;rounded=0;orthogonalLoop=1;jettySize=auto;html=1;exitX=0;exitY=0;exitDx=0;exitDy=0;entryX=1;entryY=1;entryDx=0;entryDy=0;" edge="1" parent="1" source="PkzCbmemoIAj5ChBAMET-14" target="PkzCbmemoIAj5ChBAMET-3">
          <mxGeometry relative="1" as="geometry">
            <Array as="points">
              <mxPoint x="400" y="466" />
              <mxPoint x="400" y="320" />
              <mxPoint x="350" y="320" />
              <mxPoint x="350" y="179" />
            </Array>
          </mxGeometry>
        </mxCell>
        <mxCell id="PkzCbmemoIAj5ChBAMET-35" value="7" style="edgeLabel;html=1;align=center;verticalAlign=middle;resizable=0;points=[];" vertex="1" connectable="0" parent="PkzCbmemoIAj5ChBAMET-28">
          <mxGeometry x="-0.1935" y="3" relative="1" as="geometry">
            <mxPoint as="offset" />
          </mxGeometry>
        </mxCell>
        <mxCell id="PkzCbmemoIAj5ChBAMET-14" value="" style="ellipse;whiteSpace=wrap;html=1;aspect=fixed;fillColor=#ffe6cc;strokeColor=#d79b00;" vertex="1" parent="1">
          <mxGeometry x="460" y="460" width="40" height="40" as="geometry" />
        </mxCell>
        <mxCell id="PkzCbmemoIAj5ChBAMET-15" value="Production&lt;div&gt;Machine&lt;/div&gt;" style="verticalLabelPosition=bottom;verticalAlign=top;html=1;shape=mxgraph.basic.polygon;polyCoords=[[0.25,0],[0.75,0],[1,0.25],[1,0.75],[0.75,1],[0.25,1],[0,0.75],[0,0.25]];polyline=0;spacing=-40;" vertex="1" parent="1">
          <mxGeometry x="50" y="340" width="80" height="80" as="geometry" />
        </mxCell>
        <mxCell id="PkzCbmemoIAj5ChBAMET-24" style="edgeStyle=orthogonalEdgeStyle;rounded=0;orthogonalLoop=1;jettySize=auto;html=1;exitX=1;exitY=0.5;exitDx=0;exitDy=0;entryX=1;entryY=0;entryDx=0;entryDy=0;" edge="1" parent="1" source="PkzCbmemoIAj5ChBAMET-16" target="PkzCbmemoIAj5ChBAMET-7">
          <mxGeometry relative="1" as="geometry" />
        </mxCell>
        <mxCell id="PkzCbmemoIAj5ChBAMET-31" value="3" style="edgeLabel;html=1;align=center;verticalAlign=middle;resizable=0;points=[];" vertex="1" connectable="0" parent="PkzCbmemoIAj5ChBAMET-24">
          <mxGeometry x="0.5192" y="-1" relative="1" as="geometry">
            <mxPoint as="offset" />
          </mxGeometry>
        </mxCell>
        <mxCell id="PkzCbmemoIAj5ChBAMET-16" value="" style="ellipse;whiteSpace=wrap;html=1;aspect=fixed;fillColor=#ffe6cc;strokeColor=#d79b00;" vertex="1" parent="1">
          <mxGeometry x="70" y="300" width="40" height="40" as="geometry" />
        </mxCell>
        <mxCell id="PkzCbmemoIAj5ChBAMET-17" value="&lt;div&gt;&lt;span style=&quot;background-color: transparent; color: light-dark(rgb(0, 0, 0), rgb(255, 255, 255));&quot;&gt;Charging&lt;/span&gt;&lt;/div&gt;&lt;div&gt;Station&lt;/div&gt;" style="whiteSpace=wrap;html=1;aspect=fixed;fillColor=#d5e8d4;strokeColor=#82b366;" vertex="1" parent="1">
          <mxGeometry x="40" y="30" width="100" height="100" as="geometry" />
        </mxCell>
        <mxCell id="PkzCbmemoIAj5ChBAMET-18" value="&lt;div&gt;&lt;span style=&quot;background-color: transparent; color: light-dark(rgb(0, 0, 0), rgb(255, 255, 255));&quot;&gt;Charging&lt;/span&gt;&lt;/div&gt;&lt;div&gt;Station&lt;/div&gt;" style="whiteSpace=wrap;html=1;aspect=fixed;fillColor=#d5e8d4;strokeColor=#82b366;" vertex="1" parent="1">
          <mxGeometry x="660" y="30" width="100" height="100" as="geometry" />
        </mxCell>
        <mxCell id="PkzCbmemoIAj5ChBAMET-19" value="&lt;div&gt;&lt;span style=&quot;background-color: transparent; color: light-dark(rgb(0, 0, 0), rgb(255, 255, 255));&quot;&gt;Charging&lt;/span&gt;&lt;/div&gt;&lt;div&gt;Station&lt;/div&gt;" style="whiteSpace=wrap;html=1;aspect=fixed;fillColor=#d5e8d4;strokeColor=#82b366;" vertex="1" parent="1">
          <mxGeometry x="345" y="480" width="100" height="100" as="geometry" />
        </mxCell>
        <mxCell id="JZXFlvNscchI0bjUY62b-2" value="Factory&lt;div&gt;Scenario 2&lt;/div&gt;" style="text;html=1;align=center;verticalAlign=middle;resizable=0;points=[];autosize=1;strokeColor=none;fillColor=none;fontSize=30;" parent="1" vertex="1">
          <mxGeometry x="305" y="10" width="170" height="90" as="geometry" />
        </mxCell>
      </root>
    </mxGraphModel>
  </diagram>
</mxfile>
